<svg width="50" height="50" viewBox="0 0 50 50" fill="none" xmlns="http://www.w3.org/2000/svg">
<rect width="50" height="50" rx="12" fill="#132827"/>
<g clip-path="url(#clip0_1062_130)">
<path d="M25 44C35.4934 44 44 35.4934 44 25C44 14.5066 35.4934 6 25 6C14.5066 6 6 14.5066 6 25C6 35.4934 14.5066 44 25 44Z" fill="#132827"/>
<path d="M25.3666 17.9587C21.3213 17.9587 18.4138 20.2468 17.1244 23.4925C16.6268 24.7662 16.3758 26.1229 16.3849 27.4903C16.3849 30.145 17.235 32.5469 18.7741 34.2819C20.3132 36.017 22.5665 37.1073 25.3666 37.1073C28.1666 37.1073 31.0552 35.8779 31.9749 34.9646C32.2467 34.6928 32.2909 34.4178 32.155 34.2345L31.7031 33.6025C31.4724 33.2864 31.2922 33.3307 30.8814 33.6025C29.2961 34.6824 27.4269 35.2696 25.5088 35.2901C24.6937 35.2945 23.8841 35.1565 23.1164 34.8824C20.6956 34.0196 19.008 31.8548 18.5339 29.2601C18.5327 29.2486 18.5327 29.2369 18.5339 29.2254C18.4683 28.8493 18.4281 28.4692 18.4138 28.0876C18.3333 27.1932 18.3888 26.2918 18.5782 25.414C18.8143 24.059 19.4428 22.803 20.3859 21.8017C21.033 21.1408 21.809 20.62 22.6658 20.2715C23.5226 19.923 24.4419 19.7544 25.3666 19.7759C29.475 19.7759 31.6114 22.8762 31.6114 26.4316H22.1177C22.0588 26.4316 22.0005 26.4432 21.946 26.4658C21.8916 26.4883 21.8421 26.5214 21.8004 26.5631C21.7587 26.6047 21.7257 26.6542 21.7031 26.7087C21.6806 26.7631 21.669 26.8215 21.669 26.8804V27.6262C21.6681 27.6856 21.6791 27.7444 21.7014 27.7994C21.7236 27.8544 21.7565 27.9045 21.7983 27.9466C21.8401 27.9886 21.8899 28.022 21.9448 28.0446C21.9996 28.0672 22.0584 28.0786 22.1177 28.0782H32.9325C33.6151 28.0782 33.6151 27.0321 33.6151 26.2989C33.6151 21.4857 30.1513 17.9587 25.3666 17.9587Z" fill="white"/>
<path d="M32.9166 15.4494L32.392 16.6219C32.3733 16.6632 32.346 16.7 32.3118 16.7298C32.2776 16.7596 32.2374 16.7817 32.194 16.7946C32.1505 16.8075 32.1048 16.8109 32.0599 16.8045C32.015 16.7982 31.972 16.7822 31.9338 16.7578C29.9805 15.4774 27.6958 14.7953 25.3603 14.7953C23.0247 14.7953 20.74 15.4774 18.7867 16.7578C18.7484 16.7828 18.7052 16.7992 18.6599 16.8059C18.6147 16.8125 18.5685 16.8093 18.5247 16.7964C18.4808 16.7834 18.4403 16.7611 18.4058 16.731C18.3714 16.7009 18.344 16.6637 18.3253 16.6219L17.8039 15.4494C17.7729 15.3805 17.7677 15.3027 17.7891 15.2302C17.8106 15.1578 17.8573 15.0954 17.9208 15.0544C20.1462 13.6451 22.7262 12.897 25.3603 12.897C27.9944 12.897 30.5743 13.6451 32.7997 15.0544C32.8632 15.0954 32.9099 15.1578 32.9314 15.2302C32.9529 15.3027 32.9476 15.3805 32.9166 15.4494Z" fill="url(#paint0_linear_1062_130)"/>
</g>
<defs>
<linearGradient id="paint0_linear_1062_130" x1="17.7754" y1="14.8521" x2="32.9451" y2="14.8521" gradientUnits="userSpaceOnUse">
<stop stop-color="#A7FFA2"/>
<stop offset="1" stop-color="#00836A"/>
</linearGradient>
<clipPath id="clip0_1062_130">
<rect width="38" height="38" fill="white" transform="translate(6 6)"/>
</clipPath>
</defs>
</svg>
