<svg width="117" height="35" viewBox="0 0 117 35" fill="none" xmlns="http://www.w3.org/2000/svg">
<path d="M10.6335 5.97148C8.52718 5.91217 6.45488 6.51216 4.70604 7.68767C2.9572 8.86318 1.61913 10.5555 0.878696 12.5283C0.29138 14.0333 -0.00555563 15.6359 0.00359171 17.2513C-0.06814 20.1854 0.936679 23.0442 2.82838 25.2881C3.81018 26.3769 5.01638 27.2398 6.36385 27.8175C7.71132 28.3951 9.16801 28.6737 10.6335 28.6341C13.9795 28.6341 17.377 27.1799 18.458 26.0989C18.7797 25.7772 18.8376 25.4554 18.6703 25.2366L18.1363 24.4838C17.866 24.1042 17.6472 24.1556 17.1647 24.4838C15.2845 25.7626 13.0681 26.4566 10.7944 26.4785C9.82975 26.4839 8.87158 26.3206 7.96318 25.9959C6.55339 25.4607 5.30964 24.5632 4.35731 23.3939C3.40498 22.2247 2.77774 20.8251 2.53882 19.3361C2.53882 19.3361 2.53882 19.3361 2.53882 19.2975C2.45887 18.8533 2.41156 18.4038 2.39726 17.9527C2.29805 16.8922 2.35878 15.8229 2.57743 14.7804C2.8651 13.182 3.61187 11.7019 4.72658 10.5207C5.49281 9.73947 6.41132 9.1239 7.42519 8.71215C8.43906 8.30041 9.52669 8.10126 10.6207 8.12707C15.4788 8.12707 18.014 11.7948 18.014 16.003H6.77278C6.63114 16.003 6.4953 16.0593 6.39514 16.1594C6.29498 16.2596 6.23871 16.3954 6.23871 16.5371V17.4186C6.24041 17.5591 6.29742 17.6933 6.3974 17.7921C6.49737 17.8909 6.63225 17.9463 6.77278 17.9463H19.5905C20.4013 17.9463 20.4013 16.7044 20.4013 15.8421C20.4013 10.1282 16.296 5.97148 10.6335 5.97148Z" fill="#151D1D"/>
<path d="M43.4434 6.51196H42.253H42.1243C41.994 6.53027 41.8715 6.58452 41.7703 6.66863C41.6691 6.75274 41.5934 6.86338 41.5516 6.98812L37.8389 15.3531L37.6523 15.7906L33.6693 24.7991H33.6178L28.2192 12.5733C28.1764 12.4498 28.1003 12.3405 27.9992 12.2576C27.8981 12.1747 27.776 12.1214 27.6465 12.1036C27.6039 12.097 27.5604 12.097 27.5178 12.1036H26.3274C25.8448 12.1036 25.7933 12.4833 26.0057 12.9144L32.8649 28.1515C33.0258 28.5311 33.1867 28.6341 33.5084 28.6341H33.7272C33.8698 28.6251 34.0066 28.5746 34.121 28.4888C34.2353 28.4031 34.322 28.2859 34.3706 28.1515L43.7587 7.32272C43.9775 6.8916 43.926 6.51196 43.4434 6.51196Z" fill="#151D1D"/>
<path d="M58.0057 5.97797C51.9121 5.97797 47.1634 11.1256 47.1634 17.2514C47.144 19.989 48.0817 22.6474 49.8144 24.767C50.8102 25.9793 52.0629 26.9553 53.4819 27.6244C54.9009 28.2935 56.4509 28.639 58.0197 28.6359C59.5886 28.6328 61.1372 28.2813 62.5536 27.6066C63.97 26.9319 65.2188 25.9511 66.2098 24.7348C67.9384 22.6258 68.8741 19.9782 68.8544 17.2514C68.8544 11.0999 64.0542 5.97797 58.0057 5.97797ZM66.184 19.6836C65.2253 23.6023 61.9758 26.4271 58.0057 26.4271C56.092 26.4026 54.2423 25.7349 52.7542 24.5315C51.266 23.3282 50.2261 21.6592 49.8016 19.793C49.5882 18.9627 49.4801 18.1087 49.4798 17.2514C49.4798 12.2903 53.2055 8.24294 58.0057 8.24294C62.8059 8.24294 66.48 12.2903 66.48 17.2514C66.4811 18.0712 66.3817 18.888 66.184 19.6836Z" fill="#151D1D"/>
<path d="M111.547 17.2964C111.264 17.1612 110.974 17.0261 110.672 16.8974H110.627L110.202 16.7172L110.119 16.6851C109.855 16.5757 109.585 16.4663 109.308 16.3633L108.021 15.8679C104.804 14.7354 102.873 13.7059 102.873 11.5503C102.873 10.096 104.115 8.09489 107.513 8.09489C109.271 8.16364 110.982 8.68444 112.48 9.60701H112.519C112.671 9.68693 112.846 9.71193 113.014 9.6778C113.117 9.65614 113.213 9.61278 113.298 9.55063C113.382 9.48847 113.452 9.40896 113.503 9.31746L113.825 8.71904C113.929 8.55418 113.965 8.35546 113.925 8.16465C113.886 7.97385 113.774 7.80584 113.613 7.69594C111.783 6.55609 109.668 5.95815 107.513 5.97147C102.552 5.97147 100.435 9.18877 100.435 11.5824C100.435 13.9761 101.96 15.5976 104.295 16.788C105.009 17.1432 105.741 17.4589 106.49 17.7339L107.075 17.9462C110.685 19.2975 113.111 20.3206 113.111 22.8044C113.111 24.9085 111.013 26.6651 107.963 26.6651C106.107 26.6329 104.302 26.0507 102.777 24.9921C102.507 24.812 102.307 24.6575 102.185 24.561C102.122 24.496 102.046 24.445 101.962 24.4113C101.878 24.3777 101.787 24.3622 101.697 24.3658C101.606 24.3695 101.518 24.3922 101.436 24.4325C101.355 24.4728 101.284 24.5297 101.226 24.5996L100.692 25.4619C100.629 25.5927 100.616 25.7417 100.655 25.8814C100.694 26.0211 100.783 26.1418 100.904 26.2211C102.908 27.8317 105.412 28.69 107.982 28.647C112.294 28.647 115.64 25.8994 115.64 22.6628C115.607 19.9281 113.896 18.4546 111.547 17.2964Z" fill="#151D1D"/>
<path d="M93.7047 7.21333V18.7956C93.7047 24.8956 91.1308 28.6148 85.0695 28.6148H84.0464C78.0043 28.6148 75.4111 24.8956 75.4111 18.7956V12.8114C75.4144 12.6264 75.4894 12.45 75.6202 12.3191C75.751 12.1883 75.9275 12.1134 76.1125 12.1101H77.0841C77.2691 12.1134 77.4456 12.1883 77.5764 12.3191C77.7072 12.45 77.7822 12.6264 77.7855 12.8114V18.8149C77.7855 23.8339 80.102 26.3241 84.2201 26.3241H84.9408C89.0396 26.3241 91.3754 23.8339 91.3754 18.8149V7.23264C91.3729 7.05375 91.4376 6.88045 91.5568 6.747C91.6759 6.61355 91.8408 6.52967 92.0188 6.51196H92.9904C93.1772 6.51356 93.356 6.58758 93.4892 6.71841C93.6224 6.84924 93.6997 7.02667 93.7047 7.21333Z" fill="#151D1D"/>
<path d="M63.4044 32.9388L62.9475 31.9029C62.8995 31.7981 62.8146 31.7146 62.709 31.6683C62.6034 31.622 62.4845 31.6162 62.3748 31.6519C60.9563 32.1048 59.4755 32.3328 57.9864 32.3276C56.4955 32.3332 55.0121 32.1163 53.5852 31.6841C53.4747 31.6502 53.3558 31.6577 53.2504 31.705C53.1451 31.7524 53.0605 31.8364 53.0125 31.9415L52.5621 32.971C52.5332 33.0312 52.5177 33.097 52.5167 33.1637C52.5156 33.2305 52.5289 33.2967 52.5558 33.3578C52.5827 33.4189 52.6225 33.4735 52.6725 33.5178C52.7224 33.5621 52.7813 33.5951 52.8452 33.6145C54.5111 34.136 56.2473 34.3986 57.9929 34.3931C59.7405 34.399 61.478 34.1275 63.1406 33.5887C63.2029 33.5665 63.2599 33.5313 63.3078 33.4855C63.3556 33.4397 63.3932 33.3843 63.4181 33.3229C63.4431 33.2616 63.4547 33.1956 63.4523 33.1294C63.45 33.0632 63.4336 32.9983 63.4044 32.9388Z" fill="url(#paint0_linear_212_2855)"/>
<path d="M19.5715 3.00517L18.928 4.38861C18.9068 4.43808 18.875 4.48229 18.8348 4.51809C18.7946 4.55389 18.7471 4.58041 18.6955 4.59576C18.6439 4.61112 18.5895 4.61493 18.5363 4.60693C18.4831 4.59893 18.4323 4.57931 18.3875 4.54947C16.0747 3.03418 13.3698 2.22701 10.6049 2.22701C7.83987 2.22701 5.13502 3.03418 2.82222 4.54947C2.77691 4.57936 2.72563 4.599 2.67195 4.60703C2.61827 4.61507 2.56348 4.61129 2.51141 4.59598C2.45934 4.58066 2.41124 4.55417 2.37045 4.51836C2.32967 4.48254 2.29719 4.43826 2.27528 4.38861L1.63182 3.00517C1.6056 2.91939 1.6106 2.82709 1.64593 2.74464C1.68127 2.66219 1.74465 2.59492 1.82486 2.55475C4.45873 0.885988 7.51257 0 10.6306 0C13.7486 0 16.8025 0.885988 19.4363 2.55475C19.5071 2.60293 19.5592 2.67399 19.5838 2.756C19.6084 2.83801 19.604 2.92598 19.5715 3.00517Z" fill="url(#paint1_linear_212_2855)"/>
<path d="M116.972 3.00517L116.328 4.38861C116.307 4.43808 116.275 4.48229 116.235 4.51809C116.195 4.55389 116.147 4.58041 116.096 4.59576C116.044 4.61112 115.99 4.61493 115.937 4.60693C115.883 4.59893 115.833 4.57931 115.788 4.54947C113.475 3.03418 110.77 2.22701 108.005 2.22701C105.24 2.22701 102.535 3.03418 100.222 4.54947C100.177 4.57936 100.126 4.599 100.072 4.60703C100.018 4.61507 99.9637 4.61129 99.9116 4.59598C99.8596 4.58066 99.8114 4.55417 99.7707 4.51836C99.7299 4.48254 99.6974 4.43826 99.6755 4.38861L99.0964 3.00517C99.0644 2.92651 99.0596 2.8394 99.083 2.75774C99.1063 2.67609 99.1563 2.60461 99.2251 2.55475C101.859 0.885988 104.913 0 108.031 0C111.149 0 114.203 0.885988 116.837 2.55475C116.907 2.60293 116.959 2.67399 116.984 2.756C117.009 2.83801 117.004 2.92598 116.972 3.00517Z" fill="url(#paint2_linear_212_2855)"/>
<path d="M66.924 31.5105L66.2805 30.127C66.2591 30.0778 66.2273 30.0337 66.1873 29.9979C66.1473 29.9621 66.1 29.9353 66.0487 29.9194C65.9973 29.9035 65.9432 29.8989 65.8899 29.9059C65.8367 29.9128 65.7855 29.9312 65.74 29.9597C63.4272 31.475 60.7224 32.2822 57.9574 32.2822C55.1924 32.2822 52.4875 31.475 50.1747 29.9597C50.1292 29.9312 50.0781 29.9128 50.0248 29.9059C49.9716 29.8989 49.9174 29.9035 49.8661 29.9194C49.8148 29.9353 49.7675 29.9621 49.7275 29.9979C49.6875 30.0337 49.6557 30.0778 49.6342 30.127L48.9908 31.5105C48.9563 31.593 48.9515 31.685 48.9774 31.7707C49.0032 31.8564 49.058 31.9304 49.1323 31.9802C51.7662 33.649 54.8201 34.5349 57.9381 34.5349C61.0561 34.5349 64.1099 33.649 66.7438 31.9802C66.827 31.9385 66.8916 31.8672 66.925 31.7803C66.9583 31.6934 66.9579 31.5971 66.924 31.5105Z" fill="url(#paint3_linear_212_2855)"/>
<defs>
<linearGradient id="paint0_linear_212_2855" x1="63.443" y1="33.0032" x2="52.5235" y2="33.0032" gradientUnits="userSpaceOnUse">
<stop stop-color="#A7FFA2"/>
<stop offset="1" stop-color="#00836A"/>
</linearGradient>
<linearGradient id="paint1_linear_212_2855" x1="1.65112" y1="2.29736" x2="19.6036" y2="2.29736" gradientUnits="userSpaceOnUse">
<stop stop-color="#A7FFA2"/>
<stop offset="1" stop-color="#00836A"/>
</linearGradient>
<linearGradient id="paint2_linear_212_2855" x1="99.0513" y1="2.29736" x2="117.004" y2="2.29736" gradientUnits="userSpaceOnUse">
<stop stop-color="#A7FFA2"/>
<stop offset="1" stop-color="#00836A"/>
</linearGradient>
<linearGradient id="paint3_linear_212_2855" x1="49.0294" y1="32.2054" x2="66.9883" y2="32.2054" gradientUnits="userSpaceOnUse">
<stop stop-color="#A7FFA2"/>
<stop offset="1" stop-color="#00836A"/>
</linearGradient>
</defs>
</svg>
